<svg width="66" height="64" viewBox="0 0 66 64" fill="none" xmlns="http://www.w3.org/2000/svg">
<path d="M27.6998 8.14925C27.6998 7.00663 27.9181 5.92869 28.3438 4.94776C28.7696 3.95605 29.3699 3.0937 30.1231 2.3607C30.8872 1.6277 31.7932 1.0456 32.8521 0.625207C33.9109 0.204809 35.0788 0 36.345 0C37.6112 0 38.7683 0.204809 39.8271 0.625207C40.8969 1.0456 41.8139 1.61692 42.578 2.3607C43.3421 3.0937 43.9424 3.96683 44.3681 4.94776C44.7939 5.93947 45.0121 7.00663 45.0121 8.14925C45.0121 9.29187 44.7939 10.3698 44.3681 11.3507C43.9424 12.3425 43.3421 13.2048 42.578 13.9378C41.8139 14.6708 40.8969 15.2529 39.8271 15.6733C38.7574 16.0937 37.6003 16.2985 36.345 16.2985C35.0897 16.2985 33.9109 16.0937 32.8521 15.6733C31.7932 15.2529 30.8872 14.6816 30.1231 13.9378C29.359 13.2048 28.7696 12.3317 28.3438 11.3507C27.9181 10.359 27.6998 9.29187 27.6998 8.14925ZM31.9569 8.14925C31.9569 8.76368 32.077 9.33499 32.3062 9.8524C32.5464 10.3698 32.8629 10.8226 33.2559 11.1998C33.6598 11.5879 34.1183 11.8789 34.6531 12.0945C35.188 12.3101 35.7447 12.4071 36.345 12.4071C36.9454 12.4071 37.5022 12.2993 38.037 12.0945C38.5719 11.8789 39.0413 11.5879 39.4452 11.1998C39.8491 10.8226 40.1765 10.3698 40.4057 9.8524C40.6459 9.33499 40.755 8.76368 40.755 8.14925C40.755 7.53482 40.635 6.96351 40.4057 6.4461C40.1656 5.92869 39.8491 5.47595 39.4452 5.09867C39.0413 4.72139 38.5719 4.41957 38.037 4.20398C37.5022 3.98839 36.9454 3.89138 36.345 3.89138C35.7447 3.89138 35.188 3.99917 34.6531 4.20398C34.1183 4.41957 33.6489 4.71061 33.2559 5.09867C32.852 5.48673 32.5355 5.92869 32.3062 6.4461C32.0661 6.96351 31.9569 7.53482 31.9569 8.14925Z" fill="#81CCF2" fill-opacity="0.2"/>
<path d="M0 30.2687C0 28.3018 0.339098 26.4728 1.02594 24.7725C1.71278 23.0814 2.66045 21.6016 3.87764 20.3333C5.09483 19.0742 6.54672 18.0815 8.24209 17.3646C9.93746 16.6478 11.7981 16.2985 13.8325 16.2985C15.867 16.2985 17.7014 16.657 19.4055 17.3646C21.1095 18.0815 22.5789 19.065 23.8048 20.3333C25.0307 21.5925 25.987 23.0722 26.6738 24.7725C27.3607 26.4728 27.6998 28.3018 27.6998 30.2687C27.6998 32.2355 27.352 34.0645 26.6738 35.7648C25.987 37.4651 25.0307 38.9448 23.8048 40.204C22.5789 41.4632 21.1095 42.4558 19.4055 43.1727C17.7014 43.8895 15.8409 44.2388 13.8325 44.2388C11.8242 44.2388 9.92877 43.8804 8.24209 43.1727C6.54672 42.4558 5.09483 41.4723 3.87764 40.204C2.66045 38.9448 1.71278 37.4651 1.02594 35.7648C0.339098 34.0737 0 32.2355 0 30.2687Z" fill="#81CCF2" fill-opacity="0.2"/>
<path d="M46.7578 77.9982C34.6367 77.8824 25.3722 68.962 25.3915 57.0584C25.4011 45.1645 34.656 36.08 46.7288 36.0896C58.8113 36.0607 68.0662 45.2321 68.0952 57.2611C68.1241 69.2999 58.8789 78.1431 46.7578 77.9982ZM46.7578 68.682C52.992 68.7303 57.7305 63.6715 57.7209 57.126C57.7112 50.5708 52.9631 45.4059 46.7385 45.3962C40.5139 45.3866 35.7755 50.5032 35.7755 57.0198C35.7755 63.5363 40.5235 68.6337 46.7578 68.682Z" fill="#81CCF2" fill-opacity="0.2"/>
</svg>
