<svg width="35" height="40" viewBox="0 0 35 40" fill="none" xmlns="http://www.w3.org/2000/svg">
<path d="M14.0248 4.09056C14.0248 3.51702 14.1354 2.97594 14.3509 2.48356C14.5664 1.98576 14.8704 1.5529 15.2518 1.18497C15.6387 0.817031 16.0974 0.524847 16.6335 0.313826C17.1696 0.102805 17.7609 0 18.402 0C19.0431 0 19.629 0.102805 20.1651 0.313826C20.7067 0.524847 21.171 0.81162 21.5578 1.18497C21.9447 1.5529 22.2487 1.99117 22.4642 2.48356C22.6798 2.98135 22.7903 3.51702 22.7903 4.09056C22.7903 4.66411 22.6798 5.20519 22.4642 5.69757C22.2487 6.19536 21.9447 6.62823 21.5578 6.99616C21.171 7.3641 20.7067 7.65628 20.1651 7.8673C19.6234 8.07832 19.0376 8.18113 18.402 8.18113C17.7664 8.18113 17.1696 8.07832 16.6335 7.8673C16.0974 7.65628 15.6387 7.36951 15.2518 6.99616C14.8649 6.62823 14.5664 6.18995 14.3509 5.69757C14.1354 5.19978 14.0248 4.66411 14.0248 4.09056ZM16.1802 4.09056C16.1802 4.39898 16.2411 4.68575 16.3571 4.94547C16.4787 5.20519 16.639 5.43244 16.838 5.62182C17.0424 5.81661 17.2746 5.9627 17.5454 6.07092C17.8162 6.17913 18.098 6.22783 18.402 6.22783C18.706 6.22783 18.9879 6.17372 19.2587 6.07092C19.5295 5.9627 19.7672 5.81661 19.9717 5.62182C20.1762 5.43244 20.342 5.20519 20.458 4.94547C20.5796 4.68575 20.6349 4.39898 20.6349 4.09056C20.6349 3.78215 20.5741 3.49538 20.458 3.23566C20.3364 2.97594 20.1762 2.74869 19.9717 2.55931C19.7672 2.36993 19.5295 2.21843 19.2587 2.11021C18.9879 2.002 18.706 1.9533 18.402 1.9533C18.098 1.9533 17.8162 2.00741 17.5454 2.11021C17.2746 2.21843 17.0369 2.36452 16.838 2.55931C16.6335 2.7541 16.4732 2.97594 16.3571 3.23566C16.2355 3.49538 16.1802 3.78215 16.1802 4.09056Z" fill="white"/>
<path d="M0 15.1935C0 14.2063 0.17169 13.2882 0.519449 12.4347C0.867208 11.5858 1.34702 10.8431 1.9633 10.2064C2.57959 9.57438 3.3147 9.07613 4.17309 8.71628C5.03148 8.35644 5.97355 8.18113 7.00362 8.18113C8.03368 8.18113 8.96248 8.36105 9.82527 8.71628C10.6881 9.07613 11.432 9.56977 12.0527 10.2064C12.6734 10.8385 13.1576 11.5812 13.5054 12.4347C13.8531 13.2882 14.0248 14.2063 14.0248 15.1935C14.0248 16.1808 13.8487 17.0989 13.5054 17.9523C13.1576 18.8058 12.6734 19.5486 12.0527 20.1806C11.432 20.8127 10.6881 21.3109 9.82527 21.6708C8.96248 22.0306 8.02048 22.2059 7.00362 22.2059C5.98675 22.2059 5.02708 22.026 4.17309 21.6708C3.3147 21.3109 2.57959 20.8173 1.9633 20.1806C1.34702 19.5486 0.867208 18.8058 0.519449 17.9523C0.17169 17.1035 0 16.1808 0 15.1935Z" fill="white"/>
<path d="M23.6741 39.1517C17.537 39.0935 12.8463 34.6158 12.8561 28.6408C12.861 22.6706 17.5468 18.1105 23.6595 18.1154C29.777 18.1009 34.4629 22.7045 34.4776 28.7426C34.4922 34.7855 29.8112 39.2244 23.6741 39.1517ZM23.6741 34.4753C26.8306 34.4995 29.2298 31.9603 29.2249 28.6747C29.22 25.3843 26.816 22.7917 23.6644 22.7869C20.5128 22.782 18.1137 25.3504 18.1137 28.6214C18.1137 31.8924 20.5176 34.4511 23.6741 34.4753Z" fill="white"/>
</svg>
