<svg width="143" height="21" viewBox="0 0 143 21" fill="none" xmlns="http://www.w3.org/2000/svg">
<path d="M13.0207 2.19403C13.0207 1.8864 13.08 1.59619 13.1956 1.33209C13.3112 1.06509 13.4742 0.832919 13.6788 0.635572C13.8863 0.438226 14.1323 0.281509 14.4199 0.168325C14.7074 0.0551409 15.0246 0 15.3685 0C15.7123 0 16.0266 0.0551409 16.3141 0.168325C16.6046 0.281509 16.8536 0.435324 17.0611 0.635572C17.2686 0.832919 17.4317 1.06799 17.5473 1.33209C17.6629 1.59909 17.7222 1.8864 17.7222 2.19403C17.7222 2.50166 17.6629 2.79187 17.5473 3.05597C17.4317 3.32297 17.2686 3.55514 17.0611 3.75249C16.8536 3.94983 16.6046 4.10655 16.3141 4.21973C16.0236 4.33292 15.7094 4.38806 15.3685 4.38806C15.0276 4.38806 14.7074 4.33292 14.4199 4.21973C14.1323 4.10655 13.8863 3.95274 13.6788 3.75249C13.4713 3.55514 13.3112 3.32007 13.1956 3.05597C13.08 2.78897 13.0207 2.50166 13.0207 2.19403ZM14.1768 2.19403C14.1768 2.35945 14.2094 2.51327 14.2717 2.65257C14.3369 2.79187 14.4228 2.91376 14.5296 3.01534C14.6392 3.11982 14.7637 3.19818 14.909 3.25622C15.0543 3.31426 15.2054 3.34038 15.3685 3.34038C15.5315 3.34038 15.6827 3.31136 15.828 3.25622C15.9732 3.19818 16.1007 3.11982 16.2104 3.01534C16.3201 2.91376 16.409 2.79187 16.4712 2.65257C16.5364 2.51327 16.5661 2.35945 16.5661 2.19403C16.5661 2.02861 16.5335 1.87479 16.4712 1.73549C16.406 1.59619 16.3201 1.4743 16.2104 1.37272C16.1007 1.27114 15.9732 1.18988 15.828 1.13184C15.6827 1.0738 15.5315 1.04768 15.3685 1.04768C15.2054 1.04768 15.0543 1.0767 14.909 1.13184C14.7637 1.18988 14.6363 1.26824 14.5296 1.37272C14.4199 1.4772 14.3339 1.59619 14.2717 1.73549C14.2064 1.87479 14.1768 2.02861 14.1768 2.19403Z" fill="white"/>
<path d="M5.49829 8.14925C5.49829 7.61972 5.59038 7.1273 5.7769 6.66952C5.96343 6.21422 6.22079 5.81583 6.55134 5.47435C6.88189 5.13535 7.27618 4.86811 7.73659 4.6751C8.197 4.48209 8.70228 4.38806 9.25478 4.38806C9.80727 4.38806 10.3054 4.48456 10.7682 4.6751C11.231 4.86811 11.63 5.13287 11.9629 5.47435C12.2958 5.81335 12.5555 6.21174 12.7421 6.66952C12.9286 7.1273 13.0207 7.61972 13.0207 8.14925C13.0207 8.67879 12.9262 9.17121 12.7421 9.62899C12.5555 10.0868 12.2958 10.4852 11.9629 10.8242C11.63 11.1632 11.231 11.4304 10.7682 11.6234C10.3054 11.8164 9.80018 11.9104 9.25478 11.9104C8.70937 11.9104 8.19463 11.8139 7.73659 11.6234C7.27618 11.4304 6.88189 11.1656 6.55134 10.8242C6.22079 10.4852 5.96343 10.0868 5.7769 9.62899C5.59038 9.17368 5.49829 8.67879 5.49829 8.14925Z" fill="white"/>
<path d="M18.1962 20.9995C14.9045 20.9683 12.3886 18.5667 12.3938 15.3619C12.3964 12.1597 14.9098 9.71384 18.1884 9.71644C21.4696 9.70864 23.9829 12.1779 23.9908 15.4165C23.9987 18.6577 21.488 21.0385 18.1962 20.9995ZM18.1962 18.4913C19.8893 18.5043 21.1761 17.1423 21.1735 15.3801C21.1709 13.6152 19.8814 12.2247 18.191 12.2221C16.5006 12.2195 15.2138 13.597 15.2138 15.3515C15.2138 17.1059 16.5032 18.4783 18.1962 18.4913Z" fill="white"/>
<path d="M40.6978 7.96826C40.7095 8.38871 40.6627 8.79749 40.5576 9.19459C40.4642 9.58 40.3182 9.94206 40.1196 10.2808C39.9211 10.6078 39.6758 10.8998 39.3839 11.1567C39.0919 11.402 38.7532 11.5947 38.3678 11.7348C38.1108 11.84 37.8247 11.9042 37.5093 11.9275C37.2057 11.9509 36.902 11.9626 36.5983 11.9626H35.8275V15.7992C35.8275 15.9978 35.7574 16.1671 35.6173 16.3073C35.4888 16.4358 35.3311 16.5 35.1443 16.5H33.7603C33.5734 16.5 33.4157 16.4358 33.2872 16.3073C33.1588 16.1788 33.0945 16.0153 33.0945 15.8168V5.34041C33.0945 4.97835 33.2172 4.67469 33.4624 4.42943C33.7077 4.18416 34.0055 4.06153 34.3559 4.06153H34.7413C34.9749 4.06153 35.2143 4.06153 35.4596 4.06153C35.7049 4.04985 35.956 4.04401 36.2129 4.04401C36.8086 4.04401 37.3984 4.09656 37.9823 4.20168C38.5663 4.29511 39.0627 4.5287 39.4714 4.90244C39.9153 5.27617 40.2306 5.71999 40.4175 6.23388C40.6043 6.74777 40.6978 7.3259 40.6978 7.96826ZM38.0874 8.02082C38.0991 7.5186 37.9823 7.13319 37.7371 6.86456C37.5035 6.58426 37.1648 6.43827 36.721 6.42659H35.8275V9.68512H36.721C37.1648 9.67344 37.5035 9.50993 37.7371 9.19459C37.9823 8.87924 38.0991 8.48799 38.0874 8.02082ZM47.6784 6.5317H44.9104V8.98436H47.2404C47.4273 8.97268 47.5908 9.03692 47.731 9.17707C47.8711 9.31722 47.9412 9.48657 47.9412 9.68512V10.5961C47.9412 10.7947 47.8711 10.964 47.731 11.1042C47.6025 11.2326 47.439 11.2969 47.2404 11.2969H44.9104V13.9773H47.7134C47.9003 13.9656 48.0638 14.0298 48.204 14.17C48.3441 14.3101 48.4142 14.4795 48.4142 14.678V15.7992C48.4025 15.9978 48.3324 16.1671 48.204 16.3073C48.0755 16.4358 47.912 16.5 47.7134 16.5H42.9833C42.7848 16.5 42.6096 16.4299 42.4577 16.2898C42.3176 16.1379 42.2475 15.9569 42.2475 15.7467V4.81484C42.2475 4.60461 42.3176 4.42942 42.4577 4.28927C42.6096 4.13744 42.7848 4.06153 42.9833 4.06153H47.7134C47.9003 4.04985 48.0638 4.11992 48.204 4.27175C48.3441 4.41191 48.4142 4.57542 48.4142 4.76229V5.83094C48.4025 6.02949 48.3266 6.19884 48.1865 6.33899C48.0463 6.47915 47.877 6.54338 47.6784 6.5317ZM58.0714 15.4839C58.1648 15.7292 58.1356 15.9628 57.9838 16.1847C57.8437 16.3949 57.6393 16.5 57.3706 16.5H56.337C56.1034 16.5 55.8874 16.4299 55.6888 16.2898C55.4903 16.1496 55.3501 15.9628 55.2684 15.7292L54.0245 11.9626H52.8332V15.7992C52.8332 15.9978 52.7632 16.1671 52.623 16.3073C52.4945 16.4358 52.3369 16.5 52.15 16.5H50.766C50.5791 16.5 50.4214 16.4358 50.293 16.3073C50.1645 16.1788 50.1003 16.0153 50.1003 15.8168V5.32289C50.1003 4.97251 50.2229 4.67469 50.4682 4.42943C50.7134 4.18416 51.0113 4.06153 51.3616 4.06153H53.9194C54.6435 4.06153 55.3209 4.22504 55.9516 4.55206C56.594 4.87908 57.0611 5.39297 57.3531 6.09373C57.4699 6.32731 57.5575 6.60762 57.6159 6.93464C57.6743 7.24998 57.7035 7.577 57.7035 7.9157C57.7035 8.2544 57.6743 8.58726 57.6159 8.91428C57.5692 9.22962 57.4933 9.50993 57.3882 9.75519C57.1663 10.3041 56.8451 10.7538 56.4246 11.1042L58.0714 15.4839ZM52.8332 6.42659V9.68512H53.7092C54.153 9.67344 54.4975 9.50993 54.7428 9.19459C54.9881 8.87924 55.1049 8.48215 55.0932 8.0033C55.1049 7.51277 54.9881 7.13319 54.7428 6.86456C54.4975 6.58426 54.153 6.43827 53.7092 6.42659H52.8332ZM65.745 4.76229V5.83094C65.745 6.02949 65.6749 6.19884 65.5348 6.33899C65.3946 6.47915 65.2253 6.54338 65.0267 6.5317H62.2587V8.98436H64.5887C64.7756 8.97268 64.9391 9.03692 65.0793 9.17707C65.2194 9.31722 65.2837 9.48657 65.272 9.68512V10.5961C65.272 10.7947 65.2019 10.964 65.0617 11.1042C64.9333 11.2326 64.7698 11.2969 64.5712 11.2969H62.2587V15.7992C62.2587 15.9978 62.1886 16.1671 62.0485 16.3073C61.9083 16.4358 61.739 16.5 61.5404 16.5H60.3316C60.1331 16.5 59.9579 16.4299 59.8061 16.2898C59.6659 16.1379 59.5958 15.9569 59.5958 15.7467V4.81484C59.5958 4.60461 59.6659 4.42942 59.8061 4.28927C59.9579 4.13744 60.1331 4.06153 60.3316 4.06153H65.0442C65.2428 4.04985 65.4121 4.11992 65.5523 4.27175C65.6924 4.41191 65.7567 4.57542 65.745 4.76229ZM72.5711 6.5317H69.8031V8.98436H72.1331C72.32 8.97268 72.4835 9.03692 72.6236 9.17707C72.7638 9.31722 72.8339 9.48657 72.8339 9.68512V10.5961C72.8339 10.7947 72.7638 10.964 72.6236 11.1042C72.4952 11.2326 72.3317 11.2969 72.1331 11.2969H69.8031V13.9773H72.6061C72.793 13.9656 72.9565 14.0298 73.0967 14.17C73.2368 14.3101 73.3069 14.4795 73.3069 14.678V15.7992C73.2952 15.9978 73.2251 16.1671 73.0967 16.3073C72.9682 16.4358 72.8047 16.5 72.6061 16.5H67.876C67.6775 16.5 67.5023 16.4299 67.3504 16.2898C67.2103 16.1379 67.1402 15.9569 67.1402 15.7467V4.81484C67.1402 4.60461 67.2103 4.42942 67.3504 4.28927C67.5023 4.13744 67.6775 4.06153 67.876 4.06153H72.6061C72.793 4.04985 72.9565 4.11992 73.0967 4.27175C73.2368 4.41191 73.3069 4.57542 73.3069 4.76229V5.83094C73.2952 6.02949 73.2193 6.19884 73.0791 6.33899C72.939 6.47915 72.7696 6.54338 72.5711 6.5317ZM81.3699 16.3423C81.1012 16.5058 80.7917 16.6285 80.4414 16.7102C80.091 16.792 79.7289 16.8329 79.3552 16.8329C78.9814 16.8329 78.6194 16.792 78.269 16.7102C77.9186 16.6285 77.6033 16.5058 77.323 16.3423C76.7624 16.0387 76.2894 15.6299 75.9039 15.116C75.5185 14.5904 75.209 14.0065 74.9754 13.3641C74.7535 12.7217 74.6075 12.0443 74.5375 11.3319C74.4674 10.6078 74.4674 9.90119 74.5375 9.21211C74.6192 8.51135 74.7652 7.84563 74.9754 7.21494C75.1973 6.57258 75.4776 6.01197 75.8163 5.53312C76.2485 4.93747 76.7565 4.48782 77.3405 4.18416C77.9361 3.8805 78.6019 3.72867 79.3377 3.72867C79.7815 3.72867 80.2078 3.78706 80.6165 3.90386C81.037 4.00897 81.4049 4.17832 81.7202 4.41191C82.0122 4.61045 82.1874 4.88492 82.2458 5.2353C82.3042 5.574 82.2283 5.88934 82.0181 6.18132L81.983 6.23388C81.7261 6.59594 81.3815 6.77697 80.9494 6.77697C80.7509 6.77697 80.5698 6.73609 80.4063 6.65433C80.1494 6.51418 79.8457 6.43243 79.4953 6.40907C79.1099 6.40907 78.7829 6.51418 78.5143 6.72441C78.2456 6.93464 78.0179 7.20326 77.831 7.53028C77.6675 7.82227 77.539 8.14929 77.4456 8.51135C77.3639 8.86173 77.3055 9.22962 77.2704 9.61504C77.2471 9.98878 77.2471 10.3625 77.2704 10.7363C77.2938 11.0983 77.3347 11.4487 77.3931 11.7874C77.4514 12.0677 77.5332 12.348 77.6383 12.6283C77.7551 12.9086 77.8953 13.1656 78.0588 13.3991C78.234 13.621 78.4383 13.8021 78.6719 13.9422C78.9172 14.0824 79.1975 14.1525 79.5128 14.1525C79.688 14.1525 79.8457 14.1291 79.9859 14.0824C80.1377 14.0357 80.2778 13.9773 80.4063 13.9072C80.5815 13.8021 80.7801 13.7495 81.002 13.7495C81.1772 13.7495 81.3465 13.7904 81.51 13.8722C81.6852 13.9539 81.8312 14.0707 81.948 14.2225C82.2049 14.4912 82.3159 14.8123 82.2808 15.1861C82.2458 15.5598 82.0765 15.8576 81.7728 16.0795C81.7144 16.1263 81.6502 16.173 81.5801 16.2197C81.51 16.2664 81.4399 16.3073 81.3699 16.3423ZM89.4261 4.09656C89.6364 4.09656 89.8174 4.17248 89.9692 4.32431C90.121 4.47614 90.197 4.65717 90.197 4.8674V6.14628C90.197 6.36819 90.121 6.55506 89.9692 6.70689C89.8174 6.85872 89.6364 6.93464 89.4261 6.93464H87.7793V15.7642C87.7793 15.9861 87.7034 16.173 87.5516 16.3248C87.3998 16.465 87.2187 16.535 87.0085 16.535H85.7471C85.5369 16.535 85.3559 16.465 85.2041 16.3248C85.0522 16.173 84.9763 15.9861 84.9763 15.7642V6.93464H83.3295C83.1193 6.93464 82.9383 6.85872 82.7864 6.70689C82.6346 6.55506 82.5587 6.36819 82.5587 6.14628V4.8674C82.5587 4.65717 82.6346 4.47614 82.7864 4.32431C82.9383 4.17248 83.1193 4.09656 83.3295 4.09656H89.4261ZM99.9869 6.14628C99.7767 6.44995 99.4789 6.60178 99.0934 6.60178C98.9299 6.60178 98.7664 6.56674 98.6029 6.49666C98.3226 6.36819 98.0365 6.30396 97.7445 6.30396C97.4408 6.30396 97.1605 6.40323 96.9036 6.60178C96.7868 6.68353 96.6933 6.81201 96.6233 6.9872C96.5649 7.15071 96.5357 7.33174 96.5357 7.53028C96.5357 7.71715 96.5649 7.89818 96.6233 8.07337C96.6817 8.24856 96.7751 8.38871 96.9036 8.49383C97.1372 8.69238 97.4525 8.89676 97.8496 9.10699C98.2467 9.30554 98.6029 9.50409 98.9183 9.70264C99.3387 9.97126 99.6949 10.2924 99.9869 10.6662C100.279 11.0399 100.489 11.4487 100.618 11.8925C100.758 12.3246 100.81 12.7801 100.775 13.259C100.752 13.7262 100.629 14.1933 100.407 14.6605C100.057 15.408 99.5431 15.9628 98.8657 16.3248C98.1883 16.6869 97.47 16.8679 96.7109 16.8679C95.9984 16.8679 95.321 16.7161 94.6787 16.4124C94.2699 16.2139 94.0071 15.9102 93.8903 15.5014C93.7735 15.0926 93.8494 14.7014 94.1181 14.3276C94.2115 14.1641 94.34 14.0415 94.5035 13.9597C94.667 13.878 94.8363 13.8371 95.0115 13.8371C95.1867 13.8371 95.3561 13.8838 95.5196 13.9773C95.6948 14.0707 95.8816 14.1525 96.0802 14.2225C96.2904 14.2809 96.4948 14.3101 96.6933 14.3101C97.032 14.3101 97.3299 14.1992 97.5868 13.9773C97.7036 13.8605 97.7912 13.7145 97.8496 13.5393C97.908 13.3641 97.9314 13.1889 97.9197 13.0137C97.9197 12.8269 97.8846 12.6517 97.8146 12.4882C97.7445 12.313 97.6452 12.1728 97.5167 12.0677C97.2131 11.7991 96.8043 11.5421 96.2904 11.2969C95.6013 10.9932 95.0407 10.5669 94.6086 10.018C94.1765 9.45737 93.8962 8.86173 93.7677 8.23104C93.6392 7.58868 93.6684 6.94632 93.8553 6.30396C94.0538 5.66159 94.4334 5.10099 94.994 4.62213C95.3561 4.31847 95.7707 4.1024 96.2379 3.97393C96.7167 3.83378 97.1839 3.7637 97.6394 3.7637C98.3168 3.7637 98.9183 3.87466 99.4438 4.09656C99.6424 4.17832 99.8059 4.30095 99.9344 4.46446C100.075 4.61629 100.168 4.79148 100.215 4.99003C100.261 5.1769 100.267 5.37545 100.232 5.58568C100.197 5.78423 100.115 5.9711 99.9869 6.14628ZM107.749 4.09656C107.959 4.09656 108.14 4.17248 108.292 4.32431C108.444 4.47614 108.52 4.65717 108.52 4.8674V6.14628C108.52 6.36819 108.444 6.55506 108.292 6.70689C108.14 6.85872 107.959 6.93464 107.749 6.93464H106.102V15.7642C106.102 15.9861 106.026 16.173 105.875 16.3248C105.723 16.465 105.542 16.535 105.332 16.535H104.07C103.86 16.535 103.679 16.465 103.527 16.3248C103.375 16.173 103.299 15.9861 103.299 15.7642V6.93464H101.653C101.442 6.93464 101.261 6.85872 101.11 6.70689C100.958 6.55506 100.882 6.36819 100.882 6.14628V4.8674C100.882 4.65717 100.958 4.47614 101.11 4.32431C101.261 4.17248 101.442 4.09656 101.653 4.09656H107.749ZM118.266 10.2632C118.266 11.2443 118.155 12.1436 117.933 12.9612C117.711 13.767 117.396 14.4561 116.987 15.0284C116.579 15.6007 116.076 16.0445 115.481 16.3598C114.897 16.6752 114.237 16.8329 113.501 16.8329C112.765 16.8329 112.1 16.6752 111.504 16.3598C110.92 16.0445 110.424 15.6007 110.015 15.0284C109.606 14.4561 109.291 13.767 109.069 12.9612C108.847 12.1436 108.736 11.2443 108.736 10.2632C108.736 9.28218 108.841 8.39455 109.051 7.60036C109.273 6.79449 109.588 6.11125 109.997 5.55064C110.406 4.97835 110.902 4.54038 111.486 4.23672C112.082 3.92137 112.754 3.7637 113.501 3.7637C114.237 3.7637 114.897 3.92137 115.481 4.23672C116.076 4.54038 116.579 4.97835 116.987 5.55064C117.396 6.11125 117.711 6.79449 117.933 7.60036C118.155 8.39455 118.266 9.28218 118.266 10.2632ZM115.393 10.2632C115.393 9.726 115.352 9.22962 115.27 8.77413C115.189 8.30696 115.066 7.90402 114.903 7.56532C114.751 7.22662 114.558 6.96384 114.324 6.77697C114.091 6.57842 113.816 6.47915 113.501 6.47915C113.186 6.47915 112.905 6.57842 112.66 6.77697C112.427 6.96384 112.228 7.22662 112.064 7.56532C111.913 7.90402 111.796 8.30696 111.714 8.77413C111.644 9.22962 111.609 9.726 111.609 10.2632C111.609 10.8005 111.644 11.3027 111.714 11.7699C111.796 12.237 111.913 12.64 112.064 12.9787C112.228 13.3174 112.427 13.586 112.66 13.7846C112.905 13.9831 113.186 14.0824 113.501 14.0824C113.816 14.0824 114.091 13.9831 114.324 13.7846C114.558 13.586 114.751 13.3174 114.903 12.9787C115.066 12.64 115.189 12.237 115.27 11.7699C115.352 11.3027 115.393 10.8005 115.393 10.2632ZM127.942 15.4839C128.035 15.7292 128.006 15.9628 127.854 16.1847C127.714 16.3949 127.51 16.5 127.241 16.5H126.208C125.974 16.5 125.758 16.4299 125.559 16.2898C125.361 16.1496 125.221 15.9628 125.139 15.7292L123.895 11.9626H122.704V15.7992C122.704 15.9978 122.634 16.1671 122.494 16.3073C122.365 16.4358 122.207 16.5 122.021 16.5H120.637C120.45 16.5 120.292 16.4358 120.164 16.3073C120.035 16.1788 119.971 16.0153 119.971 15.8168V5.32289C119.971 4.97251 120.094 4.67469 120.339 4.42943C120.584 4.18416 120.882 4.06153 121.232 4.06153H123.79C124.514 4.06153 125.192 4.22504 125.822 4.55206C126.465 4.87908 126.932 5.39297 127.224 6.09373C127.341 6.32731 127.428 6.60762 127.487 6.93464C127.545 7.24998 127.574 7.577 127.574 7.9157C127.574 8.2544 127.545 8.58726 127.487 8.91428C127.44 9.22962 127.364 9.50993 127.259 9.75519C127.037 10.3041 126.716 10.7538 126.295 11.1042L127.942 15.4839ZM122.704 6.42659V9.68512H123.58C124.024 9.67344 124.368 9.50993 124.613 9.19459C124.859 8.87924 124.975 8.48215 124.964 8.0033C124.975 7.51277 124.859 7.13319 124.613 6.86456C124.368 6.58426 124.024 6.43827 123.58 6.42659H122.704ZM134.88 6.5317H132.112V8.98436H134.442C134.629 8.97268 134.792 9.03692 134.932 9.17707C135.073 9.31722 135.143 9.48657 135.143 9.68512V10.5961C135.143 10.7947 135.073 10.964 134.932 11.1042C134.804 11.2326 134.64 11.2969 134.442 11.2969H132.112V13.9773H134.915C135.102 13.9656 135.265 14.0298 135.405 14.17C135.546 14.3101 135.616 14.4795 135.616 14.678V15.7992C135.604 15.9978 135.534 16.1671 135.405 16.3073C135.277 16.4358 135.113 16.5 134.915 16.5H130.185C129.986 16.5 129.811 16.4299 129.659 16.2898C129.519 16.1379 129.449 15.9569 129.449 15.7467V4.81484C129.449 4.60461 129.519 4.42942 129.659 4.28927C129.811 4.13744 129.986 4.06153 130.185 4.06153H134.915C135.102 4.04985 135.265 4.11992 135.405 4.27175C135.546 4.41191 135.616 4.57542 135.616 4.76229V5.83094C135.604 6.02949 135.528 6.19884 135.388 6.33899C135.248 6.47915 135.078 6.54338 134.88 6.5317Z" fill="white"/>
</svg>
