<svg width="298" height="369" viewBox="0 0 298 369" fill="none" xmlns="http://www.w3.org/2000/svg">
<path d="M132.62 26.37C132.62 22.66 133.3 19.21 134.67 16C136.04 12.8 137.94 10.01 140.37 7.62003C142.8 5.23003 145.7 3.37002 149.08 2.02002C152.46 0.67002 156.18 0 160.24 0C164.3 0 167.97 0.67002 171.37 2.02002C174.77 3.37002 177.7 5.23003 180.15 7.62003C182.6 10.01 184.51 12.8 185.88 16C187.25 19.21 187.93 22.66 187.93 26.37C187.93 30.08 187.24 33.54 185.88 36.74C184.51 39.95 182.6 42.74 180.15 45.12C177.7 47.51 174.77 49.37 171.37 50.72C167.97 52.07 164.26 52.74 160.24 52.74C156.22 52.74 152.45 52.07 149.08 50.72C145.7 49.37 142.79 47.51 140.37 45.12C137.94 42.73 136.04 39.94 134.67 36.74C133.3 33.54 132.62 30.08 132.62 26.37ZM146.21 26.37C146.21 28.36 146.59 30.19 147.34 31.87C148.09 33.55 149.11 35.01 150.39 36.24C151.67 37.48 153.16 38.44 154.86 39.12C156.56 39.8 158.36 40.15 160.26 40.15C162.16 40.15 163.96 39.81 165.66 39.12C167.36 38.44 168.86 37.47 170.17 36.24C171.47 35.01 172.5 33.55 173.25 31.87C174 30.19 174.38 28.36 174.38 26.37C174.38 24.38 174 22.55 173.25 20.87C172.5 19.19 171.47 17.73 170.17 16.5C168.87 15.27 167.36 14.3 165.66 13.62C163.96 12.94 162.16 12.59 160.26 12.59C158.36 12.59 156.56 12.93 154.86 13.62C153.16 14.3 151.67 15.27 150.39 16.5C149.11 17.74 148.09 19.2 147.34 20.87C146.59 22.55 146.21 24.38 146.21 26.37Z" fill="#81CCF2"/>
<path d="M0 158.271C0 150.821 1.38 143.871 4.13 137.441C6.88 131.011 10.7 125.401 15.58 120.611C20.46 115.821 26.3 112.071 33.08 109.361C39.87 106.651 47.34 105.301 55.51 105.301C63.68 105.301 71.04 106.651 77.87 109.361C84.7 112.071 90.58 115.811 95.51 120.611C100.43 125.401 104.27 131.011 107.02 137.441C109.77 143.881 111.15 150.821 111.15 158.271C111.15 165.721 109.77 172.671 107.02 179.101C104.27 185.541 100.43 191.151 95.51 195.941C90.58 200.731 84.71 204.481 77.87 207.191C71.04 209.901 63.58 211.251 55.51 211.251C47.44 211.251 39.87 209.901 33.08 207.191C26.29 204.481 20.46 200.741 15.58 195.941C10.7 191.151 6.88 185.541 4.13 179.101C1.38 172.671 0 165.721 0 158.271Z" fill="#81CCF2"/>
<path d="M217.4 368.77C173.61 368.37 140.17 336.14 140.22 293.15C140.27 250.19 173.67 217.41 217.3 217.42C260.93 217.33 294.37 250.43 294.47 293.88C294.57 337.35 261.18 369.27 217.4 368.76M217.37 335.14C239.89 335.32 257.02 317.06 256.98 293.4C256.94 269.74 239.79 251.09 217.32 251.06C194.84 251.02 177.72 269.5 177.71 293.02C177.71 316.55 194.86 334.97 217.38 335.14" fill="#81CCF2"/>
</svg>
