<svg width="463" height="373" viewBox="0 0 463 373" fill="none" xmlns="http://www.w3.org/2000/svg">
<mask id="mask0_4937_931" style="mask-type:luminance" maskUnits="userSpaceOnUse" x="0" y="0" width="463" height="373">
<path d="M0 0V186.22V372.44H462.37V0H0Z" fill="white"/>
</mask>
<g mask="url(#mask0_4937_931)">
<path d="M211.23 57.33C211.23 53.26 207.93 49.96 203.86 49.96C199.79 49.96 196.49 53.26 196.49 57.33C196.49 61.4 199.79 64.7 203.86 64.7C207.93 64.7 211.23 61.4 211.23 57.33Z" fill="#81CCF2"/>
<path d="M182.78 88.9304C182.78 83.1104 178.06 78.4004 172.25 78.4004C166.44 78.4004 161.72 83.1204 161.72 88.9304C161.72 94.7404 166.43 99.4604 172.25 99.4604C178.07 99.4604 182.78 94.7404 182.78 88.9304Z" fill="#81CCF2"/>
<path d="M148.02 57.33C148.02 53.26 144.72 49.96 140.65 49.96C136.58 49.96 133.28 53.26 133.28 57.33C133.28 61.4 136.58 64.7 140.65 64.7C144.72 64.7 148.02 61.4 148.02 57.33Z" fill="#81CCF2"/>
<path d="M156.45 150.03C156.45 158.76 163.53 165.83 172.25 165.83C180.97 165.83 188.05 158.76 188.05 150.03C188.05 141.3 180.97 134.23 172.25 134.23C163.53 134.23 156.45 141.31 156.45 150.03Z" fill="#81CCF2"/>
<path d="M190.16 120.53C190.16 128.09 196.29 134.23 203.86 134.23C211.43 134.23 217.55 128.1 217.55 120.53C217.55 112.96 211.42 106.83 203.86 106.83C196.3 106.83 190.16 112.96 190.16 120.53Z" fill="#81CCF2"/>
<path d="M63.75 120.53C63.75 128.09 69.88 134.23 77.45 134.23C85.02 134.23 91.14 128.1 91.14 120.53C91.14 112.96 85.01 106.83 77.45 106.83C69.89 106.83 63.75 112.96 63.75 120.53Z" fill="#81CCF2"/>
<path d="M30.04 150.03C30.04 158.76 37.12 165.83 45.84 165.83C54.56 165.83 61.64 158.75 61.64 150.03C61.64 141.31 54.56 134.23 45.84 134.23C37.12 134.23 30.04 141.31 30.04 150.03Z" fill="#81CCF2"/>
<path d="M56.37 88.9304C56.37 83.1104 51.65 78.4004 45.84 78.4004C40.03 78.4004 35.3 83.1204 35.3 88.9304C35.3 94.7404 40.02 99.4604 45.84 99.4604C51.66 99.4604 56.37 94.7404 56.37 88.9304Z" fill="#81CCF2"/>
<path d="M0.539978 120.53C0.539978 128.09 6.66999 134.23 14.24 134.23C21.81 134.23 27.93 128.1 27.93 120.53C27.93 112.96 21.8 106.83 14.24 106.83C6.67999 106.83 0.539978 112.96 0.539978 120.53Z" fill="#81CCF2"/>
<path d="M126.95 120.53C126.95 128.09 133.08 134.23 140.65 134.23C148.22 134.23 154.34 128.1 154.34 120.53C154.34 112.96 148.21 106.83 140.65 106.83C133.09 106.83 126.95 112.96 126.95 120.53Z" fill="#81CCF2"/>
<path d="M93.24 150.03C93.24 158.76 100.32 165.83 109.04 165.83C117.76 165.83 124.84 158.75 124.84 150.03C124.84 141.31 117.76 134.23 109.04 134.23C100.32 134.23 93.24 141.31 93.24 150.03Z" fill="#81CCF2"/>
<path d="M119.58 88.9304C119.58 83.1104 114.86 78.4004 109.05 78.4004C103.24 78.4004 98.52 83.1204 98.52 88.9304C98.52 94.7404 103.24 99.4604 109.05 99.4604C114.86 99.4604 119.58 94.7404 119.58 88.9304Z" fill="#81CCF2"/>
<path d="M84.81 57.33C84.81 53.26 81.51 49.96 77.44 49.96C73.37 49.96 70.07 53.26 70.07 57.33C70.07 61.4 73.37 64.7 77.44 64.7C81.51 64.7 84.81 61.4 84.81 57.33Z" fill="#81CCF2"/>
<path d="M21.61 57.33C21.61 53.26 18.31 49.96 14.24 49.96C10.17 49.96 6.87 53.26 6.87 57.33C6.87 61.4 10.17 64.7 14.24 64.7C18.31 64.7 21.61 61.4 21.61 57.33Z" fill="#81CCF2"/>
<path d="M242.84 315.54C240.78 317.57 237.9 318.76 234.73 318.55C229.46 318.2 225.17 313.82 224.93 308.54C224.65 302.49 229.47 297.5 235.45 297.5C238.33 297.5 240.93 298.66 242.83 300.53V258.72C239.94 260.26 236.59 261.03 232.95 260.42C225.51 259.17 219.84 252.78 219.65 245.24C219.42 236.33 226.58 229.03 235.45 229.03C238.13 229.03 240.62 229.76 242.83 230.94V204.53C242.83 200.53 239.53 197.4 235.53 197.42H235.45C226.72 197.42 219.65 204.49 219.65 213.22C219.65 221.95 212.02 229.56 202.84 228.99C194.97 228.5 188.57 222.1 188.08 214.23C187.51 205.05 194.79 197.42 203.85 197.42C212.91 197.42 220.19 189.79 219.62 180.61C219.13 172.74 212.73 166.34 204.86 165.85C195.68 165.28 188.05 172.56 188.05 181.62C188.05 190.68 180.98 197.42 172.25 197.42C163.52 197.42 156.45 204.49 156.45 213.22C156.45 221.95 148.82 229.56 139.64 228.99C131.77 228.5 125.37 222.1 124.88 214.23C124.31 205.05 131.59 197.42 140.65 197.42C149.71 197.42 156.99 189.79 156.42 180.61C155.93 172.74 149.53 166.34 141.66 165.85C132.48 165.28 124.85 172.56 124.85 181.62C124.85 190.68 117.77 197.42 109.05 197.42C100.33 197.42 93.25 204.49 93.25 213.22C93.25 221.95 85.62 229.56 76.44 228.99C68.57 228.5 62.17 222.1 61.68 214.23C61.11 205.05 68.39 197.42 77.45 197.42C86.51 197.42 93.79 189.79 93.22 180.61C92.73 172.74 86.33 166.34 78.46 165.85C69.28 165.28 61.65 172.56 61.65 181.62C61.65 190.68 54.58 197.42 45.85 197.42C37.12 197.42 30.05 204.49 30.05 213.22C30.05 221.95 22.42 229.56 13.24 228.99C5.36999 228.5 -1.03002 222.1 -1.52002 214.23C-2.09002 205.05 5.19 197.42 14.25 197.42C23.31 197.42 30.59 189.79 30.02 180.61C29.53 172.74 23.13 166.34 15.26 165.85C6.08001 165.28 -1.54999 172.56 -1.54999 181.62C-1.54999 190.68 -8.59999 197.39 -17.3 197.42C-26.02 197.45 -33.15 204.5 -33.15 213.22V244.82C-33.15 235.76 -25.52 228.48 -16.34 229.05C-8.47003 229.54 -2.07002 235.94 -1.58002 243.81C-1.01002 252.99 -8.29004 260.62 -17.35 260.62C-26.41 260.62 -33.15 253.55 -33.15 244.82V372.42H242.86V315.53L242.84 315.54ZM-17.37 318.58C-23.19 318.58 -27.9 313.87 -27.9 308.05C-27.9 302.23 -23.18 297.52 -17.37 297.52C-11.56 297.52 -6.84003 302.24 -6.84003 308.05C-6.84003 313.87 -11.56 318.58 -17.37 318.58ZM14.23 347.02C10.16 347.02 6.85999 343.72 6.85999 339.65C6.85999 335.58 10.16 332.28 14.23 332.28C18.3 332.28 21.6 335.58 21.6 339.65C21.6 343.72 18.3 347.02 14.23 347.02ZM14.23 290.13C6.66998 290.13 0.539978 284 0.539978 276.43C0.539978 268.86 6.66998 262.74 14.23 262.74C21.79 262.74 27.93 268.87 27.93 276.43C27.93 283.99 21.8 290.13 14.23 290.13ZM45.84 318.58C40.02 318.58 35.31 313.86 35.31 308.04C35.31 302.22 40.02 297.51 45.84 297.51C51.66 297.51 56.37 302.23 56.37 308.04C56.37 313.85 51.65 318.58 45.84 318.58ZM45.84 260.64C37.11 260.64 30.04 253.57 30.04 244.84C30.04 236.11 37.12 229.04 45.84 229.04C54.56 229.04 61.64 236.12 61.64 244.84C61.64 253.56 54.57 260.64 45.84 260.64ZM77.44 347.02C73.37 347.02 70.07 343.72 70.07 339.65C70.07 335.58 73.37 332.28 77.44 332.28C81.51 332.28 84.81 335.58 84.81 339.65C84.81 343.72 81.51 347.02 77.44 347.02ZM77.44 290.13C69.88 290.13 63.74 284 63.74 276.43C63.74 268.86 69.87 262.74 77.44 262.74C85.01 262.74 91.13 268.87 91.13 276.43C91.13 283.99 85 290.13 77.44 290.13ZM109.04 318.58C103.22 318.58 98.51 313.86 98.51 308.04C98.51 302.22 103.23 297.51 109.04 297.51C114.85 297.51 119.58 302.23 119.58 308.04C119.58 313.85 114.86 318.58 109.04 318.58ZM109.04 260.64C100.31 260.64 93.24 253.57 93.24 244.84C93.24 236.11 100.31 229.04 109.04 229.04C117.77 229.04 124.84 236.12 124.84 244.84C124.84 253.56 117.76 260.64 109.04 260.64ZM140.65 347.02C136.58 347.02 133.28 343.72 133.28 339.65C133.28 335.58 136.58 332.28 140.65 332.28C144.72 332.28 148.02 335.58 148.02 339.65C148.02 343.72 144.72 347.02 140.65 347.02ZM140.65 290.13C133.09 290.13 126.96 284 126.96 276.43C126.96 268.86 133.09 262.74 140.65 262.74C148.21 262.74 154.35 268.87 154.35 276.43C154.35 283.99 148.22 290.13 140.65 290.13ZM172.25 318.58C166.43 318.58 161.72 313.86 161.72 308.04C161.72 302.22 166.44 297.51 172.25 297.51C178.06 297.51 182.78 302.23 182.78 308.04C182.78 313.85 178.06 318.58 172.25 318.58ZM172.25 260.64C163.52 260.64 156.45 253.57 156.45 244.84C156.45 236.11 163.53 229.04 172.25 229.04C180.97 229.04 188.05 236.12 188.05 244.84C188.05 253.56 180.98 260.64 172.25 260.64ZM203.85 347.02C199.78 347.02 196.48 343.72 196.48 339.65C196.48 335.58 199.78 332.28 203.85 332.28C207.92 332.28 211.22 335.58 211.22 339.65C211.22 343.72 207.92 347.02 203.85 347.02ZM203.85 290.13C196.29 290.13 190.15 284 190.15 276.43C190.15 268.86 196.28 262.74 203.85 262.74C211.42 262.74 217.55 268.87 217.55 276.43C217.55 283.99 211.42 290.13 203.85 290.13Z" fill="#81CCF2"/>
<path d="M219.65 150.03C219.65 158.76 226.73 165.83 235.45 165.83C244.17 165.83 251.25 158.75 251.25 150.03C251.25 141.31 244.17 134.23 235.45 134.23C226.73 134.23 219.65 141.31 219.65 150.03Z" fill="#81CCF2"/>
<path d="M245.99 88.9304C245.99 83.1104 241.27 78.4004 235.46 78.4004C229.65 78.4004 224.92 83.1204 224.92 88.9304C224.92 94.7404 229.64 99.4604 235.46 99.4604C241.28 99.4604 245.99 94.7404 245.99 88.9304Z" fill="#81CCF2"/>
<path d="M464.05 57.33C464.05 53.26 460.75 49.96 456.68 49.96C452.61 49.96 449.31 53.26 449.31 57.33C449.31 61.4 452.61 64.7 456.68 64.7C460.75 64.7 464.05 61.4 464.05 57.33Z" fill="#81CCF2"/>
<path d="M435.61 88.9304C435.61 83.1104 430.89 78.4004 425.08 78.4004C419.27 78.4004 414.55 83.1204 414.55 88.9304C414.55 94.7404 419.26 99.4604 425.08 99.4604C430.9 99.4604 435.61 94.7404 435.61 88.9304Z" fill="#81CCF2"/>
<path d="M400.84 57.33C400.84 53.26 397.54 49.96 393.47 49.96C389.4 49.96 386.1 53.26 386.1 57.33C386.1 61.4 389.4 64.7 393.47 64.7C397.54 64.7 400.84 61.4 400.84 57.33Z" fill="#81CCF2"/>
<path d="M409.27 150.03C409.27 158.76 416.34 165.83 425.07 165.83C433.8 165.83 440.87 158.76 440.87 150.03C440.87 141.3 433.79 134.23 425.07 134.23C416.35 134.23 409.27 141.31 409.27 150.03Z" fill="#81CCF2"/>
<path d="M442.98 120.53C442.98 128.09 449.11 134.23 456.67 134.23C464.23 134.23 470.36 128.1 470.36 120.53C470.36 112.96 464.23 106.83 456.67 106.83C449.11 106.83 442.98 112.96 442.98 120.53Z" fill="#81CCF2"/>
<path d="M316.57 120.53C316.57 128.09 322.7 134.23 330.26 134.23C337.82 134.23 343.95 128.1 343.95 120.53C343.95 112.96 337.82 106.83 330.26 106.83C322.7 106.83 316.57 112.96 316.57 120.53Z" fill="#81CCF2"/>
<path d="M219.65 150.03C219.65 158.76 226.73 165.83 235.45 165.83C244.17 165.83 251.25 158.75 251.25 150.03C251.25 141.31 244.17 134.23 235.45 134.23C226.73 134.23 219.65 141.31 219.65 150.03Z" fill="#81CCF2"/>
<path d="M282.86 150.03C282.86 158.76 289.94 165.83 298.66 165.83C307.38 165.83 314.46 158.75 314.46 150.03C314.46 141.31 307.39 134.23 298.66 134.23C289.93 134.23 282.86 141.31 282.86 150.03Z" fill="#81CCF2"/>
<path d="M309.19 88.9304C309.19 83.1104 304.47 78.4004 298.66 78.4004C292.85 78.4004 288.13 83.1204 288.13 88.9304C288.13 94.7404 292.84 99.4604 298.66 99.4604C304.48 99.4604 309.19 94.7404 309.19 88.9304Z" fill="#81CCF2"/>
<path d="M245.99 88.9304C245.99 83.1104 241.27 78.4004 235.46 78.4004C229.65 78.4004 224.92 83.1204 224.92 88.9304C224.92 94.7404 229.64 99.4604 235.46 99.4604C241.28 99.4604 245.99 94.7404 245.99 88.9304Z" fill="#81CCF2"/>
<path d="M253.36 120.53C253.36 128.09 259.49 134.23 267.06 134.23C274.63 134.23 280.75 128.1 280.75 120.53C280.75 112.96 274.62 106.83 267.06 106.83C259.5 106.83 253.36 112.96 253.36 120.53Z" fill="#81CCF2"/>
<path d="M379.77 120.53C379.77 128.09 385.9 134.23 393.46 134.23C401.02 134.23 407.15 128.1 407.15 120.53C407.15 112.96 401.02 106.83 393.46 106.83C385.9 106.83 379.77 112.96 379.77 120.53Z" fill="#81CCF2"/>
<path d="M346.06 150.03C346.06 158.76 353.13 165.83 361.86 165.83C370.59 165.83 377.66 158.75 377.66 150.03C377.66 141.31 370.58 134.23 361.86 134.23C353.14 134.23 346.06 141.31 346.06 150.03Z" fill="#81CCF2"/>
<path d="M372.4 88.9304C372.4 83.1104 367.68 78.4004 361.87 78.4004C356.06 78.4004 351.34 83.1204 351.34 88.9304C351.34 94.7404 356.05 99.4604 361.87 99.4604C367.69 99.4604 372.4 94.7404 372.4 88.9304Z" fill="#81CCF2"/>
<path d="M337.64 57.33C337.64 53.26 334.34 49.96 330.27 49.96C326.2 49.96 322.9 53.26 322.9 57.33C322.9 61.4 326.2 64.7 330.27 64.7C334.34 64.7 337.64 61.4 337.64 57.33Z" fill="#81CCF2"/>
<path d="M274.43 57.33C274.43 53.26 271.13 49.96 267.06 49.96C262.99 49.96 259.69 53.26 259.69 57.33C259.69 61.4 262.99 64.7 267.06 64.7C271.13 64.7 274.43 61.4 274.43 57.33Z" fill="#81CCF2"/>
<path d="M495.66 315.54C493.6 317.57 490.72 318.76 487.56 318.55C482.28 318.2 478 313.82 477.76 308.54C477.48 302.49 482.3 297.5 488.28 297.5C491.16 297.5 493.76 298.66 495.66 300.53V258.72C492.77 260.26 489.42 261.03 485.78 260.42C478.34 259.17 472.67 252.78 472.48 245.24C472.26 236.33 479.41 229.03 488.28 229.03C490.96 229.03 493.45 229.76 495.66 230.94V204.53C495.66 200.53 492.36 197.4 488.36 197.42H488.28C479.55 197.42 472.48 204.49 472.48 213.22C472.48 221.95 464.85 229.56 455.67 228.99C447.8 228.5 441.4 222.1 440.91 214.23C440.34 205.05 447.62 197.42 456.68 197.42C465.74 197.42 473.02 189.79 472.45 180.61C471.96 172.74 465.56 166.34 457.69 165.85C448.51 165.28 440.88 172.56 440.88 181.62C440.88 190.68 433.81 197.42 425.08 197.42C416.35 197.42 409.28 204.49 409.28 213.22C409.28 221.95 401.65 229.56 392.47 228.99C384.6 228.5 378.2 222.1 377.71 214.23C377.14 205.05 384.42 197.42 393.48 197.42C402.54 197.42 409.82 189.79 409.25 180.61C408.76 172.74 402.36 166.34 394.49 165.85C385.31 165.28 377.68 172.56 377.68 181.62C377.68 190.68 370.6 197.42 361.88 197.42C353.16 197.42 346.08 204.49 346.08 213.22C346.08 221.95 338.45 229.56 329.27 228.99C321.4 228.5 315 222.1 314.51 214.23C313.94 205.05 321.22 197.42 330.28 197.42C339.34 197.42 346.62 189.79 346.05 180.61C345.56 172.74 339.16 166.34 331.29 165.85C322.11 165.28 314.48 172.56 314.48 181.62C314.48 190.68 307.41 197.42 298.68 197.42C289.95 197.42 282.88 204.49 282.88 213.22C282.88 221.95 275.25 229.56 266.07 228.99C258.2 228.5 251.8 222.1 251.31 214.23C250.74 205.05 258.02 197.42 267.08 197.42C276.14 197.42 283.42 189.79 282.85 180.61C282.36 172.74 275.96 166.34 268.09 165.85C258.91 165.28 251.28 172.56 251.28 181.62C251.28 190.68 244.23 197.39 235.53 197.42C226.81 197.45 219.68 204.5 219.68 213.22V244.82C219.68 235.76 227.31 228.48 236.49 229.05C244.36 229.54 250.76 235.94 251.25 243.81C251.82 252.99 244.54 260.62 235.48 260.62C226.42 260.62 219.68 253.55 219.68 244.82V372.42H495.69V315.53L495.66 315.54ZM235.45 318.58C229.63 318.58 224.92 313.87 224.92 308.05C224.92 302.23 229.64 297.52 235.45 297.52C241.26 297.52 245.98 302.24 245.98 308.05C245.98 313.87 241.26 318.58 235.45 318.58ZM267.06 347.02C262.99 347.02 259.69 343.72 259.69 339.65C259.69 335.58 262.99 332.28 267.06 332.28C271.13 332.28 274.43 335.58 274.43 339.65C274.43 343.72 271.13 347.02 267.06 347.02ZM267.06 290.13C259.5 290.13 253.37 284 253.37 276.43C253.37 268.86 259.5 262.74 267.06 262.74C274.62 262.74 280.76 268.87 280.76 276.43C280.76 283.99 274.63 290.13 267.06 290.13ZM298.66 318.58C292.84 318.58 288.13 313.86 288.13 308.04C288.13 302.22 292.84 297.51 298.66 297.51C304.48 297.51 309.19 302.23 309.19 308.04C309.19 313.85 304.47 318.58 298.66 318.58ZM298.66 260.64C289.93 260.64 282.86 253.57 282.86 244.84C282.86 236.11 289.94 229.04 298.66 229.04C307.38 229.04 314.46 236.12 314.46 244.84C314.46 253.56 307.39 260.64 298.66 260.64ZM330.26 347.02C326.19 347.02 322.89 343.72 322.89 339.65C322.89 335.58 326.19 332.28 330.26 332.28C334.33 332.28 337.63 335.58 337.63 339.65C337.63 343.72 334.33 347.02 330.26 347.02ZM330.26 290.13C322.7 290.13 316.57 284 316.57 276.43C316.57 268.86 322.7 262.74 330.26 262.74C337.82 262.74 343.95 268.87 343.95 276.43C343.95 283.99 337.82 290.13 330.26 290.13ZM361.87 318.58C356.05 318.58 351.34 313.86 351.34 308.04C351.34 302.22 356.06 297.51 361.87 297.51C367.68 297.51 372.4 302.23 372.4 308.04C372.4 313.85 367.68 318.58 361.87 318.58ZM361.87 260.64C353.14 260.64 346.07 253.57 346.07 244.84C346.07 236.11 353.14 229.04 361.87 229.04C370.6 229.04 377.67 236.12 377.67 244.84C377.67 253.56 370.59 260.64 361.87 260.64ZM393.47 347.02C389.4 347.02 386.1 343.72 386.1 339.65C386.1 335.58 389.4 332.28 393.47 332.28C397.54 332.28 400.84 335.58 400.84 339.65C400.84 343.72 397.54 347.02 393.47 347.02ZM393.47 290.13C385.91 290.13 379.78 284 379.78 276.43C379.78 268.86 385.91 262.74 393.47 262.74C401.03 262.74 407.17 268.87 407.17 276.43C407.17 283.99 401.04 290.13 393.47 290.13ZM425.07 318.58C419.25 318.58 414.54 313.86 414.54 308.04C414.54 302.22 419.25 297.51 425.07 297.51C430.89 297.51 435.6 302.23 435.6 308.04C435.6 313.85 430.88 318.58 425.07 318.58ZM425.07 260.64C416.34 260.64 409.27 253.57 409.27 244.84C409.27 236.11 416.35 229.04 425.07 229.04C433.79 229.04 440.87 236.12 440.87 244.84C440.87 253.56 433.8 260.64 425.07 260.64ZM456.67 347.02C452.6 347.02 449.3 343.72 449.3 339.65C449.3 335.58 452.6 332.28 456.67 332.28C460.74 332.28 464.04 335.58 464.04 339.65C464.04 343.72 460.74 347.02 456.67 347.02ZM456.67 290.13C449.11 290.13 442.98 284 442.98 276.43C442.98 268.86 449.11 262.74 456.67 262.74C464.23 262.74 470.36 268.87 470.36 276.43C470.36 283.99 464.23 290.13 456.67 290.13Z" fill="#81CCF2"/>
</g>
</svg>
